<?xml version="1.0" standalone="no"?><svg xmlns="http://www.w3.org/2000/svg" viewBox="0 0 1440 320"><defs>    <linearGradient id="grad2" x1="0%" y1="0%" x2="0%" y2="100%">
      <stop offset="0%" style="stop-color:#ff1168;stop-opacity:1" />
      <stop offset="100%" style="stop-color:#f2bc06;stop-opacity:1" />
    </linearGradient></defs><path fill="#e7008a" fill-opacity="1" d="M0,128L9.6,138.7C19.2,149,38,171,58,154.7C76.8,139,96,85,115,85.3C134.4,85,154,139,173,149.3C192,160,211,128,230,144C249.6,160,269,224,288,208C307.2,192,326,96,346,90.7C364.8,85,384,171,403,213.3C422.4,256,442,256,461,213.3C480,171,499,85,518,85.3C537.6,85,557,171,576,181.3C595.2,192,614,128,634,117.3C652.8,107,672,149,691,154.7C710.4,160,730,128,749,96C768,64,787,32,806,21.3C825.6,11,845,21,864,74.7C883.2,128,902,224,922,229.3C940.8,235,960,149,979,149.3C998.4,149,1018,235,1037,240C1056,245,1075,171,1094,138.7C1113.6,107,1133,117,1152,128C1171.2,139,1190,149,1210,133.3C1228.8,117,1248,75,1267,69.3C1286.4,64,1306,96,1325,117.3C1344,139,1363,149,1382,133.3C1401.6,117,1421,75,1430,53.3L1440,32L1440,0L1430.4,0C1420.8,0,1402,0,1382,0C1363.2,0,1344,0,1325,0C1305.6,0,1286,0,1267,0C1248,0,1229,0,1210,0C1190.4,0,1171,0,1152,0C1132.8,0,1114,0,1094,0C1075.2,0,1056,0,1037,0C1017.6,0,998,0,979,0C960,0,941,0,922,0C902.4,0,883,0,864,0C844.8,0,826,0,806,0C787.2,0,768,0,749,0C729.6,0,710,0,691,0C672,0,653,0,634,0C614.4,0,595,0,576,0C556.8,0,538,0,518,0C499.2,0,480,0,461,0C441.6,0,422,0,403,0C384,0,365,0,346,0C326.4,0,307,0,288,0C268.8,0,250,0,230,0C211.2,0,192,0,173,0C153.6,0,134,0,115,0C96,0,77,0,58,0C38.4,0,19,0,10,0L0,0Z"></path></svg>